<?xml version="1.0" encoding="UTF-8"?>
<svg xmlns="http://www.w3.org/2000/svg" viewBox="0 0 400 400" width="400" height="400" role="img">
  <title/>
  <defs>
    <linearGradient id="pip-light-wink-body" x1="0.15" y1="0" x2="0.7" y2="1">
      <stop offset="0" stop-color="#FFFCF2" stop-opacity="1"/>
      <stop offset="0.45" stop-color="#F3E8CF" stop-opacity="1"/>
      <stop offset="1" stop-color="#D2BF95" stop-opacity="1"/>
    </linearGradient>
    <radialGradient id="pip-light-wink-shade" cx="0.38" cy="0.32" r="0.78" fx="0.38" fy="0.32">
      <stop offset="0" stop-color="#000" stop-opacity="0"/>
      <stop offset="0.72" stop-color="#000" stop-opacity="0"/>
      <stop offset="1" stop-color="#5E4B31" stop-opacity="0.45"/>
    </radialGradient>
    <linearGradient id="pip-light-wink-bevel" x1="0" y1="0" x2="0.8" y2="0.9">
      <stop offset="0" stop-color="#fff" stop-opacity="0.7"/>
      <stop offset="0.45" stop-color="#fff" stop-opacity="0.08"/>
      <stop offset="1" stop-color="#fff" stop-opacity="0"/>
    </linearGradient>
    <linearGradient id="pip-light-wink-rim" x1="0" y1="0.3" x2="1" y2="0.5">
      <stop offset="0" stop-color="#FFFFFF" stop-opacity="0"/>
      <stop offset="0.78" stop-color="#FFFFFF" stop-opacity="0"/>
      <stop offset="1" stop-color="#FFFFFF" stop-opacity="0.95"/>
    </linearGradient>
    <linearGradient id="pip-light-wink-spec" x1="0" y1="0" x2="0.9" y2="1">
      <stop offset="0" stop-color="#fff" stop-opacity="0.85"/>
      <stop offset="1" stop-color="#fff" stop-opacity="0"/>
    </linearGradient>
    <linearGradient id="pip-light-wink-arm" x1="0" y1="0" x2="1" y2="0">
      <stop offset="0" stop-color="#FFF9EC" stop-opacity="1"/>
      <stop offset="1" stop-color="#DAC89E" stop-opacity="1"/>
    </linearGradient>
    <linearGradient id="pip-light-wink-steel" x1="0" y1="0" x2="0" y2="1">
      <stop offset="0" stop-color="#FBFCFE" stop-opacity="1"/>
      <stop offset="0.35" stop-color="#C9CFD8" stop-opacity="1"/>
      <stop offset="0.55" stop-color="#E9ECF1" stop-opacity="1"/>
      <stop offset="0.8" stop-color="#9AA2B0" stop-opacity="1"/>
      <stop offset="1" stop-color="#C7CDD6" stop-opacity="1"/>
    </linearGradient>
    <linearGradient id="pip-light-wink-steelX" x1="0" y1="0" x2="1" y2="0">
      <stop offset="0" stop-color="#8C95A4" stop-opacity="1"/>
      <stop offset="0.3" stop-color="#F3F5F8" stop-opacity="1"/>
      <stop offset="0.5" stop-color="#C2C8D2" stop-opacity="1"/>
      <stop offset="0.72" stop-color="#EEF1F5" stop-opacity="1"/>
      <stop offset="1" stop-color="#7E8797" stop-opacity="1"/>
    </linearGradient>
    <linearGradient id="pip-light-wink-grind" x1="0" y1="0" x2="1" y2="0.2">
      <stop offset="0" stop-color="#FFFFFF" stop-opacity="1"/>
      <stop offset="1" stop-color="#C8CED8" stop-opacity="1"/>
    </linearGradient>
    <radialGradient id="pip-light-wink-rivet" cx="0.35" cy="0.3" r="0.75" fx="0.35" fy="0.3">
      <stop offset="0" stop-color="#FFFFFF" stop-opacity="1"/>
      <stop offset="0.45" stop-color="#C9CFD8" stop-opacity="1"/>
      <stop offset="1" stop-color="#6F7889" stop-opacity="1"/>
    </radialGradient>
    <radialGradient id="pip-light-wink-sclera" cx="0.45" cy="0.38" r="0.7" fx="0.45" fy="0.38">
      <stop offset="0" stop-color="#FFFFFF" stop-opacity="1"/>
      <stop offset="0.75" stop-color="#F3F1F4" stop-opacity="1"/>
      <stop offset="1" stop-color="#D9D3DC" stop-opacity="1"/>
    </radialGradient>
    <radialGradient id="pip-light-wink-iris" cx="0.5" cy="0.62" r="0.6" fx="0.5" fy="0.62">
      <stop offset="0" stop-color="#7FD7FF" stop-opacity="1"/>
      <stop offset="0.45" stop-color="#2F7BD0" stop-opacity="1"/>
      <stop offset="0.85" stop-color="#1B2E73" stop-opacity="1"/>
      <stop offset="1" stop-color="#121A45" stop-opacity="1"/>
    </radialGradient>
    <linearGradient id="pip-light-wink-mitt" x1="0.2" y1="0" x2="0.8" y2="1">
      <stop offset="0" stop-color="#FFFFFF" stop-opacity="1"/>
      <stop offset="1" stop-color="#E3D9CF" stop-opacity="1"/>
    </linearGradient>
    <linearGradient id="pip-light-wink-feet" x1="0" y1="0" x2="0" y2="1">
      <stop offset="0" stop-color="#3A3E58" stop-opacity="1"/>
      <stop offset="1" stop-color="#14162A" stop-opacity="1"/>
    </linearGradient>
    <radialGradient id="pip-light-wink-shadow" cx="0.5" cy="0.5" r="0.5" fx="0.5" fy="0.5">
      <stop offset="0" stop-color="#000" stop-opacity="0.5"/>
      <stop offset="1" stop-color="#000" stop-opacity="0"/>
    </radialGradient>
    <linearGradient id="pip-light-wink-lidT" x1="0" y1="0" x2="0" y2="1">
      <stop offset="0" stop-color="#FAF2E0" stop-opacity="1"/>
      <stop offset="0.85" stop-color="#F6ECD7" stop-opacity="1"/>
      <stop offset="1" stop-color="#E8DAB9" stop-opacity="1"/>
    </linearGradient>
    <linearGradient id="pip-light-wink-lidB" x1="0" y1="0" x2="0" y2="1">
      <stop offset="0" stop-color="#E0D0AA" stop-opacity="1"/>
      <stop offset="0.12" stop-color="#F6ECD7" stop-opacity="1"/>
      <stop offset="1" stop-color="#F4EAD3" stop-opacity="1"/>
    </linearGradient>
    <clipPath id="pip-light-wink-bladeClip">
      <path d="M14 10V-50Q16 -92 -18 -122Q-27 -84 -17 -44L-17 10Z"/>
    </clipPath>
    <clipPath id="pip-light-wink-eye0">
      <ellipse rx="22" ry="26"/>
    </clipPath>
    <clipPath id="pip-light-wink-lid0">
      <ellipse rx="26.5" ry="30.5"/>
    </clipPath>
    <clipPath id="pip-light-wink-eye1">
      <ellipse rx="22" ry="26"/>
    </clipPath>
    <clipPath id="pip-light-wink-lid1">
      <ellipse rx="26.5" ry="30.5"/>
    </clipPath>
    <clipPath id="pip-light-wink-mouth">
      <path d="M-15 -3Q0 5.65 15 -11Q0 13 -15 -3Z"/>
    </clipPath>
    <filter id="pip-light-wink-outline" filterUnits="userSpaceOnUse" x="-20" y="-20" width="440" height="440" color-interpolation-filters="sRGB">
      <feOffset in="SourceAlpha" dx="1.6" dy="0" result="o0"/>
      <feOffset in="SourceAlpha" dx="1.13" dy="1.13" result="o1"/>
      <feOffset in="SourceAlpha" dx="0" dy="1.6" result="o2"/>
      <feOffset in="SourceAlpha" dx="-1.13" dy="1.13" result="o3"/>
      <feOffset in="SourceAlpha" dx="-1.6" dy="0" result="o4"/>
      <feOffset in="SourceAlpha" dx="-1.13" dy="-1.13" result="o5"/>
      <feOffset in="SourceAlpha" dx="0" dy="-1.6" result="o6"/>
      <feOffset in="SourceAlpha" dx="1.13" dy="-1.13" result="o7"/>
      <feMerge result="ring">
        <feMergeNode in="o0"/>
        <feMergeNode in="o1"/>
        <feMergeNode in="o2"/>
        <feMergeNode in="o3"/>
        <feMergeNode in="o4"/>
        <feMergeNode in="o5"/>
        <feMergeNode in="o6"/>
        <feMergeNode in="o7"/>
      </feMerge>
      <feFlood flood-color="#7b6443" result="fc"/>
      <feComposite in="fc" in2="ring" operator="in" result="line"/>
      <feMerge>
        <feMergeNode in="line"/>
        <feMergeNode in="SourceGraphic"/>
      </feMerge>
    </filter>
  </defs>
  <g>
    <ellipse cx="200" cy="350" rx="92" ry="13" fill="url(#pip-light-wink-shadow)" opacity="1" transform="translate(200.00 350.00) rotate(0.00) scale(1.0000 1.0000) translate(-200 -350)"/>
    <g filter="url(#pip-light-wink-outline)">
      <g/>
      <g transform="translate(200.00 345.00) rotate(4.07) scale(0.9958 1.0073) translate(-200 -345)">
        <g transform="translate(286.00 284.00) rotate(-0.89) scale(1.0000 1.0000) translate(-286 -284)">
          <path d="M278 282Q292 280 294 292" fill="none" stroke="#4E5668" stroke-width="6" stroke-linecap="round"/>
          <path d="M278 282Q292 280 294 292" fill="none" stroke="url(#pip-light-wink-steelX)" stroke-width="3" stroke-linecap="round"/>
          <circle cx="294" cy="309" r="15" fill="none" stroke="#4E5668" stroke-width="7.5"/>
          <circle cx="294" cy="309" r="15" fill="none" stroke="url(#pip-light-wink-steelX)" stroke-width="4"/>
          <path d="M282 302A14 14 0 0 1 292 294.5" fill="none" stroke="#fff" stroke-width="2" stroke-linecap="round" opacity="0.9"/>
        </g>
        <g transform="translate(212.00 140.00) rotate(36.00) scale(1.0000 1.0000) translate(0 0)">
          <path d="M-7 10V-36Q-7 -46 3 -46Q12 -46 12 -38Q12 -33 6 -31L2 -29V-24L8 -22V10Z" fill="url(#pip-light-wink-steelX)" stroke="#4E5668" stroke-width="2.6" stroke-linejoin="round"/>
          <path d="M-3 6V-36Q-3 -42 3 -42" fill="none" stroke="#fff" stroke-width="1.8" stroke-linecap="round" opacity="0.85"/>
        </g>
        <g transform="translate(212.00 140.00) rotate(-25.49) scale(1.0000 1.0000) translate(0 0)">
          <g>
            <path d="M14 10V-50Q16 -92 -18 -122Q-27 -84 -17 -44L-17 10Z" fill="url(#pip-light-wink-steelX)" stroke="#4E5668" stroke-width="3" stroke-linejoin="round"/>
            <path d="M-17 10L-17 -44Q-27 -84 -18 -122Q-12 -88 -5 -50L-5 10Z" fill="url(#pip-light-wink-grind)" opacity="0.9"/>
            <path d="M-5 6V-50Q-10 -88 -17 -120" fill="none" stroke="#8D96A6" stroke-width="1.4" opacity="0.8"/>
            <path d="M7 -30Q9 -40 7 -50" fill="none" stroke="#6A7385" stroke-width="3.2" stroke-linecap="round" opacity="0.6"/>
            <path d="M9 4V-50Q10 -82 -8 -106" fill="none" stroke="#fff" stroke-width="2" stroke-linecap="round" opacity="0.85"/>
            <g clip-path="url(#pip-light-wink-bladeClip)">
              <rect x="-30" y="-130" width="60" height="14" fill="#fff" opacity="0.85" transform="rotate(-30)"/>
            </g>
          </g>
        </g>
        <g>
          <ellipse cx="172" cy="339" rx="22" ry="10" fill="url(#pip-light-wink-feet)"/>
          <ellipse cx="168" cy="335" rx="10" ry="3" fill="#fff" opacity="0.18"/>
          <ellipse cx="228" cy="339" rx="22" ry="10" fill="url(#pip-light-wink-feet)"/>
          <ellipse cx="224" cy="335" rx="10" ry="3" fill="#fff" opacity="0.18"/>
        </g>
        <g transform="translate(0.00 0.00) rotate(0.00) scale(1.0000 1.0000) translate(0 0)">
          <path d="M122 208A78 78 0 0 1 278 208V288Q278 336 232 336H168Q122 336 122 288Z" fill="url(#pip-light-wink-body)"/>
          <path d="M122 208A78 78 0 0 1 278 208V288Q278 336 232 336H168Q122 336 122 288Z" fill="url(#pip-light-wink-shade)"/>
          <path d="M122 208A78 78 0 0 1 278 208V288Q278 336 232 336H168Q122 336 122 288Z" fill="none" stroke="url(#pip-light-wink-bevel)" stroke-width="5" transform="translate(200 232) scale(.94) translate(-200 -232)"/>
          <path d="M270 288Q270 326 232 328" fill="none" stroke="#6F5A3C" stroke-width="5" stroke-linecap="round" opacity="0.28"/>
          <path d="M122 208A78 78 0 0 1 278 208V288Q278 336 232 336H168Q122 336 122 288Z" fill="none" stroke="url(#pip-light-wink-rim)" stroke-width="4"/>
          <path d="M136 196Q140 156 176 140Q156 162 150 198Q146 208 136 196Z" fill="url(#pip-light-wink-spec)" opacity="0.75"/>
          <ellipse cx="186" cy="140" rx="5" ry="3.2" fill="#fff" opacity="0.8" transform="rotate(-14 186 140)"/>
          <path d="M122 208A78 78 0 0 1 278 208V288Q278 336 232 336H168Q122 336 122 288Z" fill="none" stroke="#8C7550" stroke-width="3.2"/>
          <g>
            <rect x="118" y="266" width="164" height="25" rx="8" fill="url(#pip-light-wink-steel)" stroke="#4E5668" stroke-width="2.6"/>
            <path d="M126 274H274M124 279H276M126 284H274" stroke="#6F7889" stroke-opacity="0.22" stroke-width="0.9"/>
            <rect x="124" y="268.5" width="152" height="4" rx="2" fill="#fff" opacity="0.75"/>
            <path d="M124 293H276" stroke="#6F5A3C" stroke-width="3" opacity="0.3"/>
            <circle cx="140" cy="279" r="6.5" fill="url(#pip-light-wink-rivet)" stroke="#4E5668" stroke-width="1.6"/>
            <circle cx="138" cy="277" r="1.6" fill="#fff"/>
            <circle cx="260" cy="279" r="6.5" fill="url(#pip-light-wink-rivet)" stroke="#4E5668" stroke-width="1.6"/>
            <circle cx="258" cy="277" r="1.6" fill="#fff"/>
            <rect x="186" y="276" width="22" height="7" rx="3.5" fill="none" stroke="#6F7889" stroke-width="1.6" opacity="0.8"/>
            <path d="M204 276L212 268.5Q213.5 267.5 213.5 269L209 276" fill="none" stroke="#6F7889" stroke-width="1.6" opacity="0.8" stroke-linejoin="round"/>
          </g>
          <ellipse cx="150" cy="236" rx="12" ry="6.5" fill="#FFF6E4" opacity="0.420"/>
          <ellipse cx="250" cy="236" rx="12" ry="6.5" fill="#FFF6E4" opacity="0.420"/>
          <g transform="translate(171.24 201.09) rotate(0.00) scale(1.0000 1.0000) translate(0 0)">
            <ellipse rx="25.5" ry="29.5" fill="#6F5A3C" opacity="0.35" cy="1.5"/>
            <g clip-path="url(#pip-light-wink-eye0)">
              <rect x="-26" y="-30" width="52" height="60" fill="url(#pip-light-wink-sclera)"/>
              <g transform="translate(0.84 0.45) rotate(0.00) scale(1.0000 1.0000) translate(0 0)">
                <g transform="translate(0.00 0.00) rotate(0.00) scale(1.0000 1.0000) translate(0 0)">
                  <circle r="14.5" fill="url(#pip-light-wink-iris)"/>
                  <circle r="14.5" fill="none" stroke="#0E1338" stroke-width="2.2"/>
                  <circle r="7" fill="#070A1E"/>
                  <path d="M-9 6A11 11 0 0 0 9 6" stroke="#9DE6FF" stroke-width="2" fill="none" opacity="0.6" stroke-linecap="round"/>
                </g>
                <ellipse cx="-5" cy="-6" rx="5" ry="5.8" fill="#fff"/>
                <circle cx="5.5" cy="5" r="2.2" fill="#fff" opacity="0.9"/>
              </g>
              <ellipse cy="-22" rx="22" ry="8" fill="#4F3F29" opacity="0.12"/>
            </g>
            <ellipse rx="22" ry="26" fill="none" stroke="#3D2F1E" stroke-width="2.6"/>
            <g clip-path="url(#pip-light-wink-lid0)">
              <path fill="url(#pip-light-wink-lidT)" d="M-32 -34H32V-22.8Q0 -14.080000000000002 -32 -22.8Z"/>
              <path fill="url(#pip-light-wink-lidB)" d="M-32 34H32V16.560000000000002Q0 1.4079999999999995 -32 16.560000000000002Z"/>
            </g>
            <path fill="none" stroke="#3D2F1E" stroke-width="3.4" stroke-linecap="round" opacity="1.000" d="M-13.199999999999998 -21.8Q0 -13.080000000000002 13.199999999999998 -21.8"/>
            <path fill="none" stroke="#3D2F1E" stroke-width="2.8" stroke-linecap="round" opacity="0.960" d="M-21.51483735594302 17.560000000000002Q0 0.4079999999999995 21.51483735594302 17.560000000000002"/>
          </g>
          <g transform="translate(229.24 201.09) rotate(0.00) scale(1.0000 1.0000) translate(0 0)">
            <ellipse rx="25.5" ry="29.5" fill="#6F5A3C" opacity="0.35" cy="1.5"/>
            <g clip-path="url(#pip-light-wink-eye1)">
              <rect x="-26" y="-30" width="52" height="60" fill="url(#pip-light-wink-sclera)"/>
              <g transform="translate(0.84 0.45) rotate(0.00) scale(1.0000 1.0000) translate(0 0)">
                <g transform="translate(0.00 0.00) rotate(0.00) scale(1.0000 1.0000) translate(0 0)">
                  <circle r="14.5" fill="url(#pip-light-wink-iris)"/>
                  <circle r="14.5" fill="none" stroke="#0E1338" stroke-width="2.2"/>
                  <circle r="7" fill="#070A1E"/>
                  <path d="M-9 6A11 11 0 0 0 9 6" stroke="#9DE6FF" stroke-width="2" fill="none" opacity="0.6" stroke-linecap="round"/>
                </g>
                <ellipse cx="-5" cy="-6" rx="5" ry="5.8" fill="#fff"/>
                <circle cx="5.5" cy="5" r="2.2" fill="#fff" opacity="0.9"/>
              </g>
              <ellipse cy="-22" rx="22" ry="8" fill="#4F3F29" opacity="0.12"/>
            </g>
            <ellipse rx="22" ry="26" fill="none" stroke="#3D2F1E" stroke-width="2.6"/>
            <g clip-path="url(#pip-light-wink-lid1)">
              <path fill="url(#pip-light-wink-lidT)" d="M-32 -34H32V-2Q0 5.6000000000000005 -32 -2Z"/>
              <path fill="url(#pip-light-wink-lidB)" d="M-32 34H32V2Q0 -24.8 -32 2Z"/>
            </g>
            <path fill="none" stroke="#3D2F1E" stroke-width="3.4" stroke-linecap="round" opacity="1.000" d="M-21 -2Q0 8.600000000000001 21 -2"/>
            <path fill="none" stroke="#3D2F1E" stroke-width="2.8" stroke-linecap="round" opacity="0.000" d="M-23 3Q0 -25.8 23 3"/>
          </g>
          <path d="M-15 4Q-2 -7 15 2" fill="none" stroke="#1E2036" stroke-width="7.5" stroke-linecap="round" transform="translate(169.30 155.12) rotate(2.00) scale(1.0000 1.0000) translate(0 0)"/>
          <path d="M-15 2Q2 -7 15 4" fill="none" stroke="#1E2036" stroke-width="7.5" stroke-linecap="round" transform="translate(231.30 168.12) rotate(-6.00) scale(1.0000 1.0000) translate(0 0)"/>
          <g transform="translate(200.36 246.12) rotate(0.00) scale(1.0000 1.0000) translate(0 0)">
            <path fill="#4F3F29" stroke="#3D2F1E" stroke-width="4.2" stroke-linejoin="round" stroke-linecap="round" d="M-15 -3Q0 5.65 15 -11Q0 13 -15 -3Z"/>
            <g clip-path="url(#pip-light-wink-mouth)">
              <rect x="-15" width="60" height="5" fill="#fff" y="-3.675" opacity="0.000"/>
              <ellipse fill="#FF7A86" cx="0" cy="4" rx="8.25" ry="5" opacity="0.500"/>
            </g>
          </g>
          <ellipse cx="208" cy="149" rx="26" ry="7" fill="#5E4B31" opacity="0.28"/>
        </g>
        <g>
          <path d="M150 150A76 76 0 0 1 250 150" fill="none" stroke="#4E5668" stroke-width="8" stroke-linecap="round"/>
          <path d="M150 150A76 76 0 0 1 250 150" fill="none" stroke="url(#pip-light-wink-steel)" stroke-width="4.5" stroke-linecap="round"/>
          <circle cx="212" cy="140" r="12" fill="#4E5668"/>
          <circle cx="212" cy="140" r="8.5" fill="url(#pip-light-wink-rivet)" stroke="#4E5668" stroke-width="2"/>
          <circle cx="209.5" cy="137.5" r="2.2" fill="#fff"/>
        </g>
        <g>
          <g transform="translate(131.00 240.00) rotate(14.00) scale(1.0000 1.0000) translate(0 0)">
            <rect x="-8.5" y="-8" width="17" height="44" rx="8.5" fill="url(#pip-light-wink-arm)" stroke="#8C7550" stroke-width="2.6"/>
            <path d="M-3.5 6V26" stroke="#fff" stroke-opacity="0.4" stroke-width="3" stroke-linecap="round"/>
            <circle r="6.2" fill="url(#pip-light-wink-rivet)" stroke="#4E5668" stroke-width="1.6"/>
            <circle cx="-1.6" cy="-1.6" r="1.5" fill="#fff"/>
            <g transform="translate(0.00 34.00) rotate(0.00) scale(1.0000 1.0000) translate(0 0)">
              <g>
                <ellipse cx="-10.5" cy="3" rx="5" ry="8" fill="url(#pip-light-wink-mitt)" stroke="#8E6F66" stroke-width="2" transform="rotate(28 -10.5 3)"/>
                <path d="M-11 6Q-12 22 0 23Q12 22 11 6Q11 -6 0 -6Q-11 -6 -11 6Z" fill="url(#pip-light-wink-mitt)" stroke="#8E6F66" stroke-width="2"/>
                <path d="M-4 1Q-6 10 -3 16" stroke="#fff" stroke-width="2.4" fill="none" stroke-linecap="round" opacity="0.9"/>
              </g>
            </g>
          </g>
          <g transform="matrix(-1 0 0 1 400 0)">
            <g transform="translate(131.00 240.00) rotate(82.34) scale(1.0000 1.0000) translate(0 0)">
              <rect x="-8.5" y="-8" width="17" height="44" rx="8.5" fill="url(#pip-light-wink-arm)" stroke="#8C7550" stroke-width="2.6"/>
              <path d="M-3.5 6V26" stroke="#fff" stroke-opacity="0.4" stroke-width="3" stroke-linecap="round"/>
              <circle r="6.2" fill="url(#pip-light-wink-rivet)" stroke="#4E5668" stroke-width="1.6"/>
              <circle cx="-1.6" cy="-1.6" r="1.5" fill="#fff"/>
              <g transform="translate(0.00 34.00) rotate(7.66) scale(1.0000 1.0000) translate(0 0)">
                <g>
                  <circle cx="0" cy="8" r="11.5" fill="url(#pip-light-wink-mitt)" stroke="#8E6F66" stroke-width="2"/>
                  <rect x="-25" y="-1" width="20" height="10" rx="5" fill="url(#pip-light-wink-mitt)" stroke="#8E6F66" stroke-width="2"/>
                  <path d="M-3 6Q2 10 8 6M-3 12Q2 16 8 12" stroke="#B79E93" stroke-width="1.6" fill="none" stroke-linecap="round"/>
                </g>
              </g>
            </g>
          </g>
        </g>
      </g>
      <g>
        <path d="M0 -12Q0 0 12 0Q0 0 0 12Q0 0 -12 0Q0 0 0 -12Z" fill="#fff" transform="translate(262.00 170.00) rotate(360.00) scale(1.0000 1.0000) translate(0 0)" opacity="1.000"/>
      </g>
    </g>
  </g>
</svg>
