<?xml version="1.0" encoding="UTF-8"?>
<svg xmlns="http://www.w3.org/2000/svg" viewBox="0 0 400 400" width="400" height="400" role="img">
  <title/>
  <defs>
    <linearGradient id="pip-light-tool-lens-body" x1="0.15" y1="0" x2="0.7" y2="1">
      <stop offset="0" stop-color="#FFFCF2" stop-opacity="1"/>
      <stop offset="0.45" stop-color="#F3E8CF" stop-opacity="1"/>
      <stop offset="1" stop-color="#D2BF95" stop-opacity="1"/>
    </linearGradient>
    <radialGradient id="pip-light-tool-lens-shade" cx="0.38" cy="0.32" r="0.78" fx="0.38" fy="0.32">
      <stop offset="0" stop-color="#000" stop-opacity="0"/>
      <stop offset="0.72" stop-color="#000" stop-opacity="0"/>
      <stop offset="1" stop-color="#5E4B31" stop-opacity="0.45"/>
    </radialGradient>
    <linearGradient id="pip-light-tool-lens-bevel" x1="0" y1="0" x2="0.8" y2="0.9">
      <stop offset="0" stop-color="#fff" stop-opacity="0.7"/>
      <stop offset="0.45" stop-color="#fff" stop-opacity="0.08"/>
      <stop offset="1" stop-color="#fff" stop-opacity="0"/>
    </linearGradient>
    <linearGradient id="pip-light-tool-lens-rim" x1="0" y1="0.3" x2="1" y2="0.5">
      <stop offset="0" stop-color="#FFFFFF" stop-opacity="0"/>
      <stop offset="0.78" stop-color="#FFFFFF" stop-opacity="0"/>
      <stop offset="1" stop-color="#FFFFFF" stop-opacity="0.95"/>
    </linearGradient>
    <linearGradient id="pip-light-tool-lens-spec" x1="0" y1="0" x2="0.9" y2="1">
      <stop offset="0" stop-color="#fff" stop-opacity="0.85"/>
      <stop offset="1" stop-color="#fff" stop-opacity="0"/>
    </linearGradient>
    <linearGradient id="pip-light-tool-lens-arm" x1="0" y1="0" x2="1" y2="0">
      <stop offset="0" stop-color="#FFF9EC" stop-opacity="1"/>
      <stop offset="1" stop-color="#DAC89E" stop-opacity="1"/>
    </linearGradient>
    <linearGradient id="pip-light-tool-lens-steel" x1="0" y1="0" x2="0" y2="1">
      <stop offset="0" stop-color="#FBFCFE" stop-opacity="1"/>
      <stop offset="0.35" stop-color="#C9CFD8" stop-opacity="1"/>
      <stop offset="0.55" stop-color="#E9ECF1" stop-opacity="1"/>
      <stop offset="0.8" stop-color="#9AA2B0" stop-opacity="1"/>
      <stop offset="1" stop-color="#C7CDD6" stop-opacity="1"/>
    </linearGradient>
    <linearGradient id="pip-light-tool-lens-steelX" x1="0" y1="0" x2="1" y2="0">
      <stop offset="0" stop-color="#8C95A4" stop-opacity="1"/>
      <stop offset="0.3" stop-color="#F3F5F8" stop-opacity="1"/>
      <stop offset="0.5" stop-color="#C2C8D2" stop-opacity="1"/>
      <stop offset="0.72" stop-color="#EEF1F5" stop-opacity="1"/>
      <stop offset="1" stop-color="#7E8797" stop-opacity="1"/>
    </linearGradient>
    <radialGradient id="pip-light-tool-lens-rivet" cx="0.35" cy="0.3" r="0.75" fx="0.35" fy="0.3">
      <stop offset="0" stop-color="#FFFFFF" stop-opacity="1"/>
      <stop offset="0.45" stop-color="#C9CFD8" stop-opacity="1"/>
      <stop offset="1" stop-color="#6F7889" stop-opacity="1"/>
    </radialGradient>
    <radialGradient id="pip-light-tool-lens-sclera" cx="0.45" cy="0.38" r="0.7" fx="0.45" fy="0.38">
      <stop offset="0" stop-color="#FFFFFF" stop-opacity="1"/>
      <stop offset="0.75" stop-color="#F3F1F4" stop-opacity="1"/>
      <stop offset="1" stop-color="#D9D3DC" stop-opacity="1"/>
    </radialGradient>
    <radialGradient id="pip-light-tool-lens-iris" cx="0.5" cy="0.62" r="0.6" fx="0.5" fy="0.62">
      <stop offset="0" stop-color="#7FD7FF" stop-opacity="1"/>
      <stop offset="0.45" stop-color="#2F7BD0" stop-opacity="1"/>
      <stop offset="0.85" stop-color="#1B2E73" stop-opacity="1"/>
      <stop offset="1" stop-color="#121A45" stop-opacity="1"/>
    </radialGradient>
    <linearGradient id="pip-light-tool-lens-mitt" x1="0.2" y1="0" x2="0.8" y2="1">
      <stop offset="0" stop-color="#FFFFFF" stop-opacity="1"/>
      <stop offset="1" stop-color="#E3D9CF" stop-opacity="1"/>
    </linearGradient>
    <linearGradient id="pip-light-tool-lens-feet" x1="0" y1="0" x2="0" y2="1">
      <stop offset="0" stop-color="#3A3E58" stop-opacity="1"/>
      <stop offset="1" stop-color="#14162A" stop-opacity="1"/>
    </linearGradient>
    <radialGradient id="pip-light-tool-lens-shadow" cx="0.5" cy="0.5" r="0.5" fx="0.5" fy="0.5">
      <stop offset="0" stop-color="#000" stop-opacity="0.5"/>
      <stop offset="1" stop-color="#000" stop-opacity="0"/>
    </radialGradient>
    <radialGradient id="pip-light-tool-lens-glass" cx="0.35" cy="0.3" r="0.8" fx="0.35" fy="0.3">
      <stop offset="0" stop-color="#F2FBFF" stop-opacity="0.95"/>
      <stop offset="0.6" stop-color="#BFE6FB" stop-opacity="0.85"/>
      <stop offset="1" stop-color="#7FC2EC" stop-opacity="0.85"/>
    </radialGradient>
    <linearGradient id="pip-light-tool-lens-lidT" x1="0" y1="0" x2="0" y2="1">
      <stop offset="0" stop-color="#FAF2E0" stop-opacity="1"/>
      <stop offset="0.85" stop-color="#F6ECD7" stop-opacity="1"/>
      <stop offset="1" stop-color="#E8DAB9" stop-opacity="1"/>
    </linearGradient>
    <linearGradient id="pip-light-tool-lens-lidB" x1="0" y1="0" x2="0" y2="1">
      <stop offset="0" stop-color="#E0D0AA" stop-opacity="1"/>
      <stop offset="0.12" stop-color="#F6ECD7" stop-opacity="1"/>
      <stop offset="1" stop-color="#F4EAD3" stop-opacity="1"/>
    </linearGradient>
    <clipPath id="pip-light-tool-lens-eye0">
      <ellipse rx="22" ry="26"/>
    </clipPath>
    <clipPath id="pip-light-tool-lens-lid0">
      <ellipse rx="26.5" ry="30.5"/>
    </clipPath>
    <clipPath id="pip-light-tool-lens-eye1">
      <ellipse rx="22" ry="26"/>
    </clipPath>
    <clipPath id="pip-light-tool-lens-lid1">
      <ellipse rx="26.5" ry="30.5"/>
    </clipPath>
    <clipPath id="pip-light-tool-lens-mouth">
      <path d="M-9 -2Q0 -2.05 9 -2Q0 20 -9 -2Z"/>
    </clipPath>
    <filter id="pip-light-tool-lens-outline" filterUnits="userSpaceOnUse" x="-20" y="-20" width="440" height="440" color-interpolation-filters="sRGB">
      <feOffset in="SourceAlpha" dx="1.6" dy="0" result="o0"/>
      <feOffset in="SourceAlpha" dx="1.13" dy="1.13" result="o1"/>
      <feOffset in="SourceAlpha" dx="0" dy="1.6" result="o2"/>
      <feOffset in="SourceAlpha" dx="-1.13" dy="1.13" result="o3"/>
      <feOffset in="SourceAlpha" dx="-1.6" dy="0" result="o4"/>
      <feOffset in="SourceAlpha" dx="-1.13" dy="-1.13" result="o5"/>
      <feOffset in="SourceAlpha" dx="0" dy="-1.6" result="o6"/>
      <feOffset in="SourceAlpha" dx="1.13" dy="-1.13" result="o7"/>
      <feMerge result="ring">
        <feMergeNode in="o0"/>
        <feMergeNode in="o1"/>
        <feMergeNode in="o2"/>
        <feMergeNode in="o3"/>
        <feMergeNode in="o4"/>
        <feMergeNode in="o5"/>
        <feMergeNode in="o6"/>
        <feMergeNode in="o7"/>
      </feMerge>
      <feFlood flood-color="#7b6443" result="fc"/>
      <feComposite in="fc" in2="ring" operator="in" result="line"/>
      <feMerge>
        <feMergeNode in="line"/>
        <feMergeNode in="SourceGraphic"/>
      </feMerge>
    </filter>
  </defs>
  <g>
    <ellipse cx="200" cy="350" rx="92" ry="13" fill="url(#pip-light-tool-lens-shadow)" opacity="1" transform="translate(200.00 350.00) rotate(0.00) scale(1.0000 1.0000) translate(-200 -350)"/>
    <g filter="url(#pip-light-tool-lens-outline)">
      <g/>
      <g transform="translate(200.00 345.00) rotate(4.07) scale(0.9958 1.0073) translate(-200 -345)">
        <g transform="translate(286.00 284.00) rotate(-3.77) scale(1.0000 1.0000) translate(-286 -284)">
          <path d="M278 282Q292 280 294 292" fill="none" stroke="#4E5668" stroke-width="6" stroke-linecap="round"/>
          <path d="M278 282Q292 280 294 292" fill="none" stroke="url(#pip-light-tool-lens-steelX)" stroke-width="3" stroke-linecap="round"/>
          <circle cx="294" cy="309" r="15" fill="none" stroke="#4E5668" stroke-width="7.5"/>
          <circle cx="294" cy="309" r="15" fill="none" stroke="url(#pip-light-tool-lens-steelX)" stroke-width="4"/>
          <path d="M282 302A14 14 0 0 1 292 294.5" fill="none" stroke="#fff" stroke-width="2" stroke-linecap="round" opacity="0.9"/>
        </g>
        <g transform="translate(212.00 140.00) rotate(35.86) scale(1.0000 1.0000) translate(0 0)">
          <path d="M-7 10V-36Q-7 -46 3 -46Q12 -46 12 -38Q12 -33 6 -31L2 -29V-24L8 -22V10Z" fill="url(#pip-light-tool-lens-steelX)" stroke="#4E5668" stroke-width="2.6" stroke-linejoin="round"/>
          <path d="M-3 6V-36Q-3 -42 3 -42" fill="none" stroke="#fff" stroke-width="1.8" stroke-linecap="round" opacity="0.85"/>
        </g>
        <g transform="translate(212.00 140.00) rotate(18.08) scale(1.0000 1.0000) translate(0 0)">
          <g>
            <rect x="-6" y="-50" width="12" height="54" rx="6" fill="#1E2036"/>
            <rect x="-7" y="-54" width="14" height="10" rx="3" fill="url(#pip-light-tool-lens-steelX)" stroke="#4E5668" stroke-width="1.5"/>
            <circle cx="0" cy="-84" r="30" fill="url(#pip-light-tool-lens-glass)" stroke="#4E5668" stroke-width="12"/>
            <circle cx="0" cy="-84" r="30" fill="none" stroke="url(#pip-light-tool-lens-steelX)" stroke-width="7"/>
            <path d="M-17 -90A18 18 0 0 1 -6 -102" stroke="#fff" stroke-width="4.5" stroke-linecap="round" fill="none" opacity="0.9"/>
          </g>
        </g>
        <g>
          <ellipse cx="172" cy="339" rx="22" ry="10" fill="url(#pip-light-tool-lens-feet)"/>
          <ellipse cx="168" cy="335" rx="10" ry="3" fill="#fff" opacity="0.18"/>
          <ellipse cx="228" cy="339" rx="22" ry="10" fill="url(#pip-light-tool-lens-feet)"/>
          <ellipse cx="224" cy="335" rx="10" ry="3" fill="#fff" opacity="0.18"/>
        </g>
        <g transform="translate(0.00 0.00) rotate(0.00) scale(1.0000 1.0000) translate(0 0)">
          <path d="M122 208A78 78 0 0 1 278 208V288Q278 336 232 336H168Q122 336 122 288Z" fill="url(#pip-light-tool-lens-body)"/>
          <path d="M122 208A78 78 0 0 1 278 208V288Q278 336 232 336H168Q122 336 122 288Z" fill="url(#pip-light-tool-lens-shade)"/>
          <path d="M122 208A78 78 0 0 1 278 208V288Q278 336 232 336H168Q122 336 122 288Z" fill="none" stroke="url(#pip-light-tool-lens-bevel)" stroke-width="5" transform="translate(200 232) scale(.94) translate(-200 -232)"/>
          <path d="M270 288Q270 326 232 328" fill="none" stroke="#6F5A3C" stroke-width="5" stroke-linecap="round" opacity="0.28"/>
          <path d="M122 208A78 78 0 0 1 278 208V288Q278 336 232 336H168Q122 336 122 288Z" fill="none" stroke="url(#pip-light-tool-lens-rim)" stroke-width="4"/>
          <path d="M136 196Q140 156 176 140Q156 162 150 198Q146 208 136 196Z" fill="url(#pip-light-tool-lens-spec)" opacity="0.75"/>
          <ellipse cx="186" cy="140" rx="5" ry="3.2" fill="#fff" opacity="0.8" transform="rotate(-14 186 140)"/>
          <path d="M122 208A78 78 0 0 1 278 208V288Q278 336 232 336H168Q122 336 122 288Z" fill="none" stroke="#8C7550" stroke-width="3.2"/>
          <g>
            <rect x="118" y="266" width="164" height="25" rx="8" fill="url(#pip-light-tool-lens-steel)" stroke="#4E5668" stroke-width="2.6"/>
            <path d="M126 274H274M124 279H276M126 284H274" stroke="#6F7889" stroke-opacity="0.22" stroke-width="0.9"/>
            <rect x="124" y="268.5" width="152" height="4" rx="2" fill="#fff" opacity="0.75"/>
            <path d="M124 293H276" stroke="#6F5A3C" stroke-width="3" opacity="0.3"/>
            <circle cx="140" cy="279" r="6.5" fill="url(#pip-light-tool-lens-rivet)" stroke="#4E5668" stroke-width="1.6"/>
            <circle cx="138" cy="277" r="1.6" fill="#fff"/>
            <circle cx="260" cy="279" r="6.5" fill="url(#pip-light-tool-lens-rivet)" stroke="#4E5668" stroke-width="1.6"/>
            <circle cx="258" cy="277" r="1.6" fill="#fff"/>
            <rect x="186" y="276" width="22" height="7" rx="3.5" fill="none" stroke="#6F7889" stroke-width="1.6" opacity="0.8"/>
            <path d="M204 276L212 268.5Q213.5 267.5 213.5 269L209 276" fill="none" stroke="#6F7889" stroke-width="1.6" opacity="0.8" stroke-linejoin="round"/>
          </g>
          <ellipse cx="150" cy="236" rx="12" ry="6.5" fill="#FFF6E4" opacity="0.360"/>
          <ellipse cx="250" cy="236" rx="12" ry="6.5" fill="#FFF6E4" opacity="0.360"/>
          <g transform="translate(171.20 199.50) rotate(0.00) scale(1.0000 1.0000) translate(0 0)">
            <ellipse rx="25.5" ry="29.5" fill="#6F5A3C" opacity="0.35" cy="1.5"/>
            <g clip-path="url(#pip-light-tool-lens-eye0)">
              <rect x="-26" y="-30" width="52" height="60" fill="url(#pip-light-tool-lens-sclera)"/>
              <g transform="translate(0.70 -7.50) rotate(0.00) scale(1.0000 1.0000) translate(0 0)">
                <g transform="translate(0.00 0.00) rotate(0.00) scale(1.0000 1.0000) translate(0 0)">
                  <circle r="14.5" fill="url(#pip-light-tool-lens-iris)"/>
                  <circle r="14.5" fill="none" stroke="#0E1338" stroke-width="2.2"/>
                  <circle r="6.3" fill="#070A1E"/>
                  <path d="M-9 6A11 11 0 0 0 9 6" stroke="#9DE6FF" stroke-width="2" fill="none" opacity="0.6" stroke-linecap="round"/>
                </g>
                <ellipse cx="-5" cy="-6" rx="5" ry="5.8" fill="#fff"/>
                <circle cx="5.5" cy="5" r="2.2" fill="#fff" opacity="0.9"/>
              </g>
              <ellipse cy="-22" rx="22" ry="8" fill="#4F3F29" opacity="0.12"/>
            </g>
            <ellipse rx="22" ry="26" fill="none" stroke="#3D2F1E" stroke-width="2.6"/>
            <g clip-path="url(#pip-light-tool-lens-lid0)">
              <path fill="url(#pip-light-tool-lens-lidT)" d="M-32 -34H32V-25.92Q0 -17.032000000000004 -32 -25.92Z"/>
              <path fill="url(#pip-light-tool-lens-lidB)" d="M-32 34H32V25.4Q0 17.32 -32 25.4Z"/>
            </g>
            <path fill="none" stroke="#3D2F1E" stroke-width="3.4" stroke-linecap="round" opacity="0.000" d="M-8.622203894596787 -24.92Q0 -16.032000000000004 8.622203894596787 -24.92"/>
            <path fill="none" stroke="#3D2F1E" stroke-width="2.8" stroke-linecap="round" opacity="0.000" d="M-11.109577675789486 26.4Q0 16.32 11.109577675789486 26.4"/>
          </g>
          <g transform="translate(229.20 199.50) rotate(0.00) scale(1.0000 1.0000) translate(0 0)">
            <ellipse rx="25.5" ry="29.5" fill="#6F5A3C" opacity="0.35" cy="1.5"/>
            <g clip-path="url(#pip-light-tool-lens-eye1)">
              <rect x="-26" y="-30" width="52" height="60" fill="url(#pip-light-tool-lens-sclera)"/>
              <g transform="translate(0.70 -7.50) rotate(0.00) scale(1.0000 1.0000) translate(0 0)">
                <g transform="translate(0.00 0.00) rotate(0.00) scale(1.0000 1.0000) translate(0 0)">
                  <circle r="14.5" fill="url(#pip-light-tool-lens-iris)"/>
                  <circle r="14.5" fill="none" stroke="#0E1338" stroke-width="2.2"/>
                  <circle r="6.3" fill="#070A1E"/>
                  <path d="M-9 6A11 11 0 0 0 9 6" stroke="#9DE6FF" stroke-width="2" fill="none" opacity="0.6" stroke-linecap="round"/>
                </g>
                <ellipse cx="-5" cy="-6" rx="5" ry="5.8" fill="#fff"/>
                <circle cx="5.5" cy="5" r="2.2" fill="#fff" opacity="0.9"/>
              </g>
              <ellipse cy="-22" rx="22" ry="8" fill="#4F3F29" opacity="0.12"/>
            </g>
            <ellipse rx="22" ry="26" fill="none" stroke="#3D2F1E" stroke-width="2.6"/>
            <g clip-path="url(#pip-light-tool-lens-lid1)">
              <path fill="url(#pip-light-tool-lens-lidT)" d="M-32 -34H32V-25.92Q0 -17.032000000000004 -32 -25.92Z"/>
              <path fill="url(#pip-light-tool-lens-lidB)" d="M-32 34H32V25.4Q0 17.32 -32 25.4Z"/>
            </g>
            <path fill="none" stroke="#3D2F1E" stroke-width="3.4" stroke-linecap="round" opacity="0.000" d="M-8.622203894596787 -24.92Q0 -16.032000000000004 8.622203894596787 -24.92"/>
            <path fill="none" stroke="#3D2F1E" stroke-width="2.8" stroke-linecap="round" opacity="0.000" d="M-11.109577675789486 26.4Q0 16.32 11.109577675789486 26.4"/>
          </g>
          <path d="M-15 4Q-2 -7 15 2" fill="none" stroke="#1E2036" stroke-width="7.5" stroke-linecap="round" transform="translate(169.25 150.00) rotate(-3.00) scale(1.0000 1.0000) translate(0 0)"/>
          <path d="M-15 2Q2 -7 15 4" fill="none" stroke="#1E2036" stroke-width="7.5" stroke-linecap="round" transform="translate(231.25 150.00) rotate(3.00) scale(1.0000 1.0000) translate(0 0)"/>
          <g transform="translate(200.30 244.00) rotate(0.00) scale(1.0000 1.0000) translate(0 0)">
            <path fill="#4F3F29" stroke="#3D2F1E" stroke-width="4.2" stroke-linejoin="round" stroke-linecap="round" d="M-9 -2Q0 -2.05 9 -2Q0 20 -9 -2Z"/>
            <g clip-path="url(#pip-light-tool-lens-mouth)">
              <rect x="-9" width="60" height="5" fill="#fff" y="-5.025" opacity="0.000"/>
              <ellipse fill="#FF7A86" cx="0" cy="10" rx="4.95" ry="5" opacity="1.000"/>
            </g>
          </g>
          <ellipse cx="208" cy="149" rx="26" ry="7" fill="#5E4B31" opacity="0.28"/>
        </g>
        <g>
          <path d="M150 150A76 76 0 0 1 250 150" fill="none" stroke="#4E5668" stroke-width="8" stroke-linecap="round"/>
          <path d="M150 150A76 76 0 0 1 250 150" fill="none" stroke="url(#pip-light-tool-lens-steel)" stroke-width="4.5" stroke-linecap="round"/>
          <circle cx="212" cy="140" r="12" fill="#4E5668"/>
          <circle cx="212" cy="140" r="8.5" fill="url(#pip-light-tool-lens-rivet)" stroke="#4E5668" stroke-width="2"/>
          <circle cx="209.5" cy="137.5" r="2.2" fill="#fff"/>
        </g>
        <g>
          <g transform="translate(131.00 240.00) rotate(65.92) scale(1.0000 1.0000) translate(0 0)">
            <rect x="-8.5" y="-8" width="17" height="44" rx="8.5" fill="url(#pip-light-tool-lens-arm)" stroke="#8C7550" stroke-width="2.6"/>
            <path d="M-3.5 6V26" stroke="#fff" stroke-opacity="0.4" stroke-width="3" stroke-linecap="round"/>
            <circle r="6.2" fill="url(#pip-light-tool-lens-rivet)" stroke="#4E5668" stroke-width="1.6"/>
            <circle cx="-1.6" cy="-1.6" r="1.5" fill="#fff"/>
            <g transform="translate(0.00 34.00) rotate(-20.00) scale(1.0000 1.0000) translate(0 0)">
              <g>
                <ellipse cx="-10.5" cy="3" rx="5" ry="8" fill="url(#pip-light-tool-lens-mitt)" stroke="#8E6F66" stroke-width="2" transform="rotate(28 -10.5 3)"/>
                <path d="M-11 6Q-12 22 0 23Q12 22 11 6Q11 -6 0 -6Q-11 -6 -11 6Z" fill="url(#pip-light-tool-lens-mitt)" stroke="#8E6F66" stroke-width="2"/>
                <path d="M-4 1Q-6 10 -3 16" stroke="#fff" stroke-width="2.4" fill="none" stroke-linecap="round" opacity="0.9"/>
              </g>
            </g>
          </g>
          <g transform="matrix(-1 0 0 1 400 0)">
            <g transform="translate(131.00 240.00) rotate(68.95) scale(1.0000 1.0000) translate(0 0)">
              <rect x="-8.5" y="-8" width="17" height="44" rx="8.5" fill="url(#pip-light-tool-lens-arm)" stroke="#8C7550" stroke-width="2.6"/>
              <path d="M-3.5 6V26" stroke="#fff" stroke-opacity="0.4" stroke-width="3" stroke-linecap="round"/>
              <circle r="6.2" fill="url(#pip-light-tool-lens-rivet)" stroke="#4E5668" stroke-width="1.6"/>
              <circle cx="-1.6" cy="-1.6" r="1.5" fill="#fff"/>
              <g transform="translate(0.00 34.00) rotate(-20.00) scale(1.0000 1.0000) translate(0 0)">
                <g>
                  <ellipse cx="-10.5" cy="3" rx="5" ry="8" fill="url(#pip-light-tool-lens-mitt)" stroke="#8E6F66" stroke-width="2" transform="rotate(28 -10.5 3)"/>
                  <path d="M-11 6Q-12 22 0 23Q12 22 11 6Q11 -6 0 -6Q-11 -6 -11 6Z" fill="url(#pip-light-tool-lens-mitt)" stroke="#8E6F66" stroke-width="2"/>
                  <path d="M-4 1Q-6 10 -3 16" stroke="#fff" stroke-width="2.4" fill="none" stroke-linecap="round" opacity="0.9"/>
                </g>
              </g>
            </g>
          </g>
        </g>
      </g>
      <g/>
    </g>
  </g>
</svg>
